<?xml version="1.0" encoding="UTF-8"?>
<svg xmlns="http://www.w3.org/2000/svg" width="600" height="290" viewBox="0 0 600 290" fill="none" role="img" aria-labelledby="title description">
  <title id="title">Good ideas deserve real software.</title>
  <desc id="description">好的想法，值得变成真实的软件。Building for the age of AI agents.</desc>
  <defs>
    <linearGradient id="background" x1="0" y1="0" x2="600" y2="290" gradientUnits="userSpaceOnUse">
      <stop stop-color="#0c1722"/><stop offset=".5" stop-color="#080e17"/><stop offset="1" stop-color="#10242a"/>
    </linearGradient>
    <linearGradient id="metal" x1="0" y1="0" x2="1" y2="1">
      <stop stop-color="#d6fff2"/><stop offset=".45" stop-color="#74f8ce"/><stop offset="1" stop-color="#259b88"/>
    </linearGradient>
    <linearGradient id="glass" x1="0" y1="0" x2="1" y2="1">
      <stop stop-color="#203c45" stop-opacity=".85"/><stop offset=".55" stop-color="#0c1c27" stop-opacity=".95"/><stop offset="1" stop-color="#152e32"/>
    </linearGradient>
    <linearGradient id="fade-line"><stop stop-color="#74f8ce" stop-opacity="0"/><stop offset=".5" stop-color="#74f8ce"/><stop offset="1" stop-color="#74f8ce" stop-opacity="0"/></linearGradient>
    <linearGradient id="sheen"><stop stop-color="white" stop-opacity="0"/><stop offset=".5" stop-color="white" stop-opacity=".85"/><stop offset="1" stop-color="white" stop-opacity="0"/></linearGradient>
    <radialGradient id="aura"><stop stop-color="#74f8ce" stop-opacity=".2"/><stop offset=".45" stop-color="#2da78f" stop-opacity=".09"/><stop offset="1" stop-color="#74f8ce" stop-opacity="0"/></radialGradient>
    <pattern id="grid" width="48" height="48" patternUnits="userSpaceOnUse"><path d="M48 0H0V48" stroke="#203846" stroke-opacity=".3" stroke-width=".6"/></pattern>
    <pattern id="dust" width="7" height="7" patternUnits="userSpaceOnUse"><circle cx="1" cy="1" r=".45" fill="white" opacity=".035"/><circle cx="5" cy="4" r=".35" fill="white" opacity=".025"/></pattern>
    <filter id="glow" x="-70%" y="-70%" width="240%" height="240%" color-interpolation-filters="sRGB"><feGaussianBlur stdDeviation="3"/><feMerge><feMergeNode/><feMergeNode in="SourceGraphic"/></feMerge></filter>
    <filter id="soft-glow" x="-100%" y="-100%" width="300%" height="300%" color-interpolation-filters="sRGB"><feGaussianBlur stdDeviation="12"/></filter>
    <clipPath id="frame"><rect width="600" height="290" rx="24"/></clipPath>
    
  </defs>
  <style><![CDATA[
  text { font-family: 'Trebuchet MS', 'Segoe UI', 'Microsoft YaHei', sans-serif; }
  .mono, .mono text { font-family: 'SFMono-Regular', Consolas, 'Liberation Mono', monospace; }
  .display { font-family: 'Arial Black', 'Segoe UI', sans-serif; font-weight: 900; letter-spacing: -7px; }
  .spin, .reverse, .orbit { transform-box: fill-box; transform-origin: center; }
  .spin { animation: rotate 38s linear infinite; }
  .reverse { animation: rotate 54s linear infinite reverse; }
  .orbit { animation: rotate 16s linear infinite; }
  .float { animation: float 7s ease-in-out infinite; }
  .breathe { animation: breathe 5s ease-in-out infinite; }
  .twinkle { animation: twinkle 5s ease-in-out infinite; }
  .signal { animation: signal 3s ease-in-out infinite; }
  .eyes { animation: eyes 8s ease-in-out infinite; transform-box: fill-box; transform-origin: center; }
  .flow { stroke-dasharray: 12 88; animation: flow 3.2s linear infinite; }
  .flow-slow { stroke-dasharray: 4 96; animation: flow 6s linear infinite; }
  .sweep { animation: sweep 9s ease-in-out infinite; }
  .node-halo { animation: node 6.4s ease-in-out infinite; }
  .rise { animation: rise 1.2s cubic-bezier(.2,.7,.2,1) both; }
  @keyframes rotate { to { transform: rotate(360deg); } }
  @keyframes float { 0%,100% { transform: translateY(0); } 50% { transform: translateY(-9px); } }
  @keyframes breathe { 0%,100% { opacity:.36; } 50% { opacity:.8; } }
  @keyframes twinkle { 0%,100% { opacity:.18; } 50% { opacity:.85; } }
  @keyframes signal { 0%,100% { opacity:.35; } 50% { opacity:1; } }
  @keyframes eyes { 0%,43%,47%,100% { transform:scaleY(1); } 45% { transform:scaleY(.12); } }
  @keyframes flow { to { stroke-dashoffset:-100; } }
  @keyframes sweep { 0%,35% { transform:translateX(-360px); opacity:0; } 42% { opacity:.7; } 70%,100% { transform:translateX(900px); opacity:0; } }
  @keyframes node { 0%,15%,65%,100% { opacity:.12; } 28%,45% { opacity:.95; } }
  @keyframes rise { from { opacity:0; transform:translateY(14px); } to { opacity:1; transform:translateY(0); } }
  @media (prefers-reduced-motion: reduce) {
    *, *::before, *::after { animation:none !important; }
    .rise { opacity:1; }
    .sweep { display:none; }
  }
]]></style>
  <g clip-path="url(#frame)">
    <rect width="600" height="290" fill="url(#background)"/>
    
    <ellipse cx="300" cy="350" rx="428.5714285714286" ry="260" fill="url(#aura)" class="breathe"/>
    <circle cx="171.9" cy="153.3" r="0.62" fill="#74f8ce" opacity="0.17" class="twinkle" style="animation-delay:-0.23s"/>
<circle cx="391.6" cy="162.3" r="0.46" fill="#edf7f7" opacity="0.55"/>
<circle cx="473.4" cy="39.8" r="0.52" fill="#edf7f7" opacity="0.40"/>
<circle cx="300.3" cy="217.3" r="1.66" fill="#edf7f7" opacity="0.47"/>
<circle cx="409.1" cy="159.0" r="0.89" fill="#74f8ce" opacity="0.36"/>
<circle cx="445.1" cy="117.4" r="1.45" fill="#edf7f7" opacity="0.50" class="twinkle" style="animation-delay:-3.29s"/>
<circle cx="312.5" cy="123.7" r="0.64" fill="#edf7f7" opacity="0.30"/>
<circle cx="476.4" cy="53.1" r="0.49" fill="#edf7f7" opacity="0.43"/>
<circle cx="105.3" cy="169.2" r="1.18" fill="#74f8ce" opacity="0.64"/>
<circle cx="431.7" cy="246.1" r="1.60" fill="#edf7f7" opacity="0.17"/>
<circle cx="309.8" cy="135.7" r="0.50" fill="#edf7f7" opacity="0.19" class="twinkle" style="animation-delay:-1.55s"/>
<circle cx="551.5" cy="119.6" r="1.41" fill="#edf7f7" opacity="0.47"/>
<circle cx="246.0" cy="142.6" r="1.20" fill="#74f8ce" opacity="0.24"/>
<circle cx="36.2" cy="81.3" r="1.56" fill="#edf7f7" opacity="0.57"/>
<circle cx="129.0" cy="28.1" r="1.35" fill="#edf7f7" opacity="0.20"/>
<circle cx="351.3" cy="20.2" r="0.68" fill="#edf7f7" opacity="0.36" class="twinkle" style="animation-delay:-4.69s"/>
<circle cx="361.8" cy="62.7" r="0.68" fill="#74f8ce" opacity="0.52"/>
<circle cx="233.8" cy="232.5" r="1.22" fill="#edf7f7" opacity="0.37"/>
<circle cx="181.1" cy="47.2" r="1.25" fill="#edf7f7" opacity="0.28"/>
<circle cx="145.5" cy="192.7" r="1.57" fill="#edf7f7" opacity="0.48"/>
<circle cx="300.0" cy="87.3" r="0.96" fill="#74f8ce" opacity="0.47" class="twinkle" style="animation-delay:-2.66s"/>
<circle cx="81.0" cy="152.4" r="1.63" fill="#edf7f7" opacity="0.16"/>
<circle cx="32.9" cy="77.7" r="0.71" fill="#edf7f7" opacity="0.32"/>
<circle cx="324.2" cy="188.5" r="0.52" fill="#edf7f7" opacity="0.52"/>
<circle cx="487.8" cy="263.4" r="0.89" fill="#74f8ce" opacity="0.48"/>
<circle cx="286.1" cy="106.4" r="0.81" fill="#edf7f7" opacity="0.33" class="twinkle" style="animation-delay:-2.26s"/>
<circle cx="84.8" cy="203.0" r="0.91" fill="#edf7f7" opacity="0.16"/>
<circle cx="101.1" cy="27.1" r="1.38" fill="#edf7f7" opacity="0.58"/>
<circle cx="513.3" cy="179.7" r="1.50" fill="#74f8ce" opacity="0.18"/>
<circle cx="35.9" cy="76.7" r="0.64" fill="#edf7f7" opacity="0.52"/>
    <path d="M-50 256Q300 86 650 256" stroke="#74f8ce" stroke-opacity="0.028"/>
<path d="M-50 261Q300 91 650 261" stroke="#74f8ce" stroke-opacity="0.031"/>
<path d="M-50 266Q300 96 650 266" stroke="#74f8ce" stroke-opacity="0.034"/>
<path d="M-50 271Q300 101 650 271" stroke="#74f8ce" stroke-opacity="0.037"/>
<path d="M-50 276Q300 106 650 276" stroke="#74f8ce" stroke-opacity="0.040"/>
<path d="M-50 281Q300 111 650 281" stroke="#74f8ce" stroke-opacity="0.043"/>
<path d="M-50 286Q300 116 650 286" stroke="#74f8ce" stroke-opacity="0.046"/>
<path d="M-50 291Q300 121 650 291" stroke="#74f8ce" stroke-opacity="0.049"/>
<path d="M-50 296Q300 126 650 296" stroke="#74f8ce" stroke-opacity="0.052"/>
<path d="M-50 301Q300 131 650 301" stroke="#74f8ce" stroke-opacity="0.055"/>
<path d="M-50 306Q300 136 650 306" stroke="#74f8ce" stroke-opacity="0.058"/>
<path d="M-50 311Q300 141 650 311" stroke="#74f8ce" stroke-opacity="0.061"/>
<path d="M-50 316Q300 146 650 316" stroke="#74f8ce" stroke-opacity="0.064"/>
<path d="M-50 321Q300 151 650 321" stroke="#74f8ce" stroke-opacity="0.067"/>
<path d="M-50 326Q300 156 650 326" stroke="#74f8ce" stroke-opacity="0.070"/>
    <path d="M265 38H288M312 38H335" stroke="#74f8ce" stroke-opacity=".5"/>
    <path d="M300 32L306 38L300 44L294 38Z" stroke="#74f8ce" class="signal"/>
    <text x="300" y="108" font-size="34" fill="#edf7f7" text-anchor="middle" font-weight="700" letter-spacing="-1">Good ideas deserve</text>
         <text x="300" y="151" font-size="34" fill="#d6fff2" text-anchor="middle" font-weight="700" letter-spacing="-1">real software.</text>
         <text x="300" y="197" font-size="18" fill="#91a9b8" text-anchor="middle">Building for the age of AI agents.</text>
         <text x="300" y="251" font-size="12" fill="#74f8ce" class="mono" text-anchor="middle" letter-spacing="2">TFBOY1 / KEEP BUILDING</text>
  
    <rect width="600" height="290" fill="url(#dust)" pointer-events="none"/>
  </g>
  <rect x=".5" y=".5" width="599" height="289" rx="23.5" stroke="#9be7d8" stroke-opacity=".14"/>
</svg>
