<?xml version="1.0" encoding="UTF-8"?>
<svg xmlns="http://www.w3.org/2000/svg" width="600" height="550" viewBox="0 0 600 550" fill="none" role="img" aria-labelledby="title description">
  <title id="title">TFboy1 · Independent Builder</title>
  <desc id="description">移动端主视觉：发光猫与旋转星环。让世界更加自动化，也更有趣。</desc>
  <defs>
    <linearGradient id="background" x1="0" y1="0" x2="600" y2="550" gradientUnits="userSpaceOnUse">
      <stop stop-color="#0c1722"/><stop offset=".5" stop-color="#080e17"/><stop offset="1" stop-color="#10242a"/>
    </linearGradient>
    <linearGradient id="metal" x1="0" y1="0" x2="1" y2="1">
      <stop stop-color="#d6fff2"/><stop offset=".45" stop-color="#74f8ce"/><stop offset="1" stop-color="#259b88"/>
    </linearGradient>
    <linearGradient id="glass" x1="0" y1="0" x2="1" y2="1">
      <stop stop-color="#203c45" stop-opacity=".85"/><stop offset=".55" stop-color="#0c1c27" stop-opacity=".95"/><stop offset="1" stop-color="#152e32"/>
    </linearGradient>
    <linearGradient id="fade-line"><stop stop-color="#74f8ce" stop-opacity="0"/><stop offset=".5" stop-color="#74f8ce"/><stop offset="1" stop-color="#74f8ce" stop-opacity="0"/></linearGradient>
    <linearGradient id="sheen"><stop stop-color="white" stop-opacity="0"/><stop offset=".5" stop-color="white" stop-opacity=".85"/><stop offset="1" stop-color="white" stop-opacity="0"/></linearGradient>
    <radialGradient id="aura"><stop stop-color="#74f8ce" stop-opacity=".2"/><stop offset=".45" stop-color="#2da78f" stop-opacity=".09"/><stop offset="1" stop-color="#74f8ce" stop-opacity="0"/></radialGradient>
    <pattern id="grid" width="48" height="48" patternUnits="userSpaceOnUse"><path d="M48 0H0V48" stroke="#203846" stroke-opacity=".3" stroke-width=".6"/></pattern>
    <pattern id="dust" width="7" height="7" patternUnits="userSpaceOnUse"><circle cx="1" cy="1" r=".45" fill="white" opacity=".035"/><circle cx="5" cy="4" r=".35" fill="white" opacity=".025"/></pattern>
    <filter id="glow" x="-70%" y="-70%" width="240%" height="240%" color-interpolation-filters="sRGB"><feGaussianBlur stdDeviation="3"/><feMerge><feMergeNode/><feMergeNode in="SourceGraphic"/></feMerge></filter>
    <filter id="soft-glow" x="-100%" y="-100%" width="300%" height="300%" color-interpolation-filters="sRGB"><feGaussianBlur stdDeviation="12"/></filter>
    <clipPath id="frame"><rect width="600" height="550" rx="24"/></clipPath>
    
  </defs>
  <style><![CDATA[
  text { font-family: 'Trebuchet MS', 'Segoe UI', 'Microsoft YaHei', sans-serif; }
  .mono, .mono text { font-family: 'SFMono-Regular', Consolas, 'Liberation Mono', monospace; }
  .display { font-family: 'Arial Black', 'Segoe UI', sans-serif; font-weight: 900; letter-spacing: -7px; }
  .spin, .reverse, .orbit { transform-box: fill-box; transform-origin: center; }
  .spin { animation: rotate 38s linear infinite; }
  .reverse { animation: rotate 54s linear infinite reverse; }
  .orbit { animation: rotate 16s linear infinite; }
  .float { animation: float 7s ease-in-out infinite; }
  .breathe { animation: breathe 5s ease-in-out infinite; }
  .twinkle { animation: twinkle 5s ease-in-out infinite; }
  .signal { animation: signal 3s ease-in-out infinite; }
  .eyes { animation: eyes 8s ease-in-out infinite; transform-box: fill-box; transform-origin: center; }
  .flow { stroke-dasharray: 12 88; animation: flow 3.2s linear infinite; }
  .flow-slow { stroke-dasharray: 4 96; animation: flow 6s linear infinite; }
  .sweep { animation: sweep 9s ease-in-out infinite; }
  .node-halo { animation: node 6.4s ease-in-out infinite; }
  .rise { animation: rise 1.2s cubic-bezier(.2,.7,.2,1) both; }
  @keyframes rotate { to { transform: rotate(360deg); } }
  @keyframes float { 0%,100% { transform: translateY(0); } 50% { transform: translateY(-9px); } }
  @keyframes breathe { 0%,100% { opacity:.36; } 50% { opacity:.8; } }
  @keyframes twinkle { 0%,100% { opacity:.18; } 50% { opacity:.85; } }
  @keyframes signal { 0%,100% { opacity:.35; } 50% { opacity:1; } }
  @keyframes eyes { 0%,43%,47%,100% { transform:scaleY(1); } 45% { transform:scaleY(.12); } }
  @keyframes flow { to { stroke-dashoffset:-100; } }
  @keyframes sweep { 0%,35% { transform:translateX(-360px); opacity:0; } 42% { opacity:.7; } 70%,100% { transform:translateX(900px); opacity:0; } }
  @keyframes node { 0%,15%,65%,100% { opacity:.12; } 28%,45% { opacity:.95; } }
  @keyframes rise { from { opacity:0; transform:translateY(14px); } to { opacity:1; transform:translateY(0); } }
  @media (prefers-reduced-motion: reduce) {
    *, *::before, *::after { animation:none !important; }
    .rise { opacity:1; }
    .sweep { display:none; }
  }
]]></style>
  <g clip-path="url(#frame)">
    <rect width="600" height="550" fill="url(#background)"/>
    
    <rect width="600" height="550" fill="url(#grid)" opacity=".35"/>
    <ellipse cx="465" cy="142" rx="240" ry="245" fill="url(#aura)" class="breathe"/>
    <circle cx="158.1" cy="392.0" r="0.85" fill="#74f8ce" opacity="0.48" class="twinkle" style="animation-delay:-2.65s"/>
<circle cx="473.6" cy="522.6" r="0.94" fill="#edf7f7" opacity="0.27"/>
<circle cx="94.4" cy="42.3" r="0.75" fill="#edf7f7" opacity="0.64"/>
<circle cx="347.1" cy="106.2" r="0.58" fill="#edf7f7" opacity="0.57"/>
<circle cx="424.4" cy="247.1" r="1.21" fill="#74f8ce" opacity="0.24"/>
<circle cx="433.3" cy="273.2" r="0.69" fill="#edf7f7" opacity="0.24" class="twinkle" style="animation-delay:-1.36s"/>
<circle cx="112.6" cy="184.2" r="0.86" fill="#edf7f7" opacity="0.55"/>
<circle cx="136.7" cy="126.2" r="0.94" fill="#edf7f7" opacity="0.52"/>
<circle cx="423.4" cy="295.3" r="1.41" fill="#74f8ce" opacity="0.33"/>
<circle cx="151.4" cy="285.7" r="0.45" fill="#edf7f7" opacity="0.20"/>
<circle cx="414.3" cy="451.3" r="0.95" fill="#edf7f7" opacity="0.22" class="twinkle" style="animation-delay:-5.70s"/>
<circle cx="280.1" cy="191.0" r="0.55" fill="#edf7f7" opacity="0.32"/>
<circle cx="229.8" cy="152.9" r="1.17" fill="#74f8ce" opacity="0.37"/>
<circle cx="420.8" cy="263.9" r="1.39" fill="#edf7f7" opacity="0.29"/>
<circle cx="526.8" cy="342.7" r="1.66" fill="#edf7f7" opacity="0.22"/>
<circle cx="383.9" cy="138.2" r="0.51" fill="#edf7f7" opacity="0.60" class="twinkle" style="animation-delay:-6.95s"/>
<circle cx="80.4" cy="143.7" r="1.75" fill="#74f8ce" opacity="0.54"/>
<circle cx="486.1" cy="153.5" r="1.27" fill="#edf7f7" opacity="0.25"/>
<circle cx="306.7" cy="214.1" r="0.59" fill="#edf7f7" opacity="0.29"/>
<circle cx="272.3" cy="342.9" r="1.50" fill="#edf7f7" opacity="0.35"/>
<circle cx="330.9" cy="36.0" r="1.38" fill="#74f8ce" opacity="0.39" class="twinkle" style="animation-delay:-3.86s"/>
<circle cx="495.3" cy="441.0" r="0.56" fill="#edf7f7" opacity="0.32"/>
<circle cx="83.6" cy="410.5" r="1.27" fill="#edf7f7" opacity="0.17"/>
<circle cx="20.4" cy="256.4" r="1.48" fill="#edf7f7" opacity="0.47"/>
<circle cx="429.4" cy="367.6" r="0.99" fill="#74f8ce" opacity="0.25"/>
<circle cx="66.8" cy="371.6" r="1.21" fill="#edf7f7" opacity="0.18" class="twinkle" style="animation-delay:-5.28s"/>
<circle cx="325.5" cy="453.8" r="1.12" fill="#edf7f7" opacity="0.19"/>
<circle cx="383.6" cy="314.9" r="1.66" fill="#edf7f7" opacity="0.61"/>
<circle cx="312.9" cy="26.0" r="0.73" fill="#74f8ce" opacity="0.46"/>
<circle cx="50.2" cy="285.1" r="0.57" fill="#edf7f7" opacity="0.39"/>
<circle cx="368.0" cy="518.5" r="1.37" fill="#edf7f7" opacity="0.21" class="twinkle" style="animation-delay:-5.78s"/>
<circle cx="284.9" cy="228.2" r="1.10" fill="#edf7f7" opacity="0.53"/>
<circle cx="403.5" cy="409.9" r="1.34" fill="#74f8ce" opacity="0.19"/>
<circle cx="312.0" cy="98.8" r="1.22" fill="#edf7f7" opacity="0.25"/>
<circle cx="30.4" cy="302.2" r="0.80" fill="#edf7f7" opacity="0.37"/>
<circle cx="331.7" cy="127.1" r="0.86" fill="#edf7f7" opacity="0.22" class="twinkle" style="animation-delay:-5.73s"/>
<circle cx="297.0" cy="379.1" r="1.22" fill="#74f8ce" opacity="0.21"/>
<circle cx="39.9" cy="54.6" r="1.51" fill="#edf7f7" opacity="0.16"/>
<circle cx="519.5" cy="61.8" r="0.78" fill="#edf7f7" opacity="0.31"/>
<circle cx="290.5" cy="340.0" r="1.53" fill="#edf7f7" opacity="0.59"/>
<circle cx="244.7" cy="436.6" r="0.91" fill="#74f8ce" opacity="0.55" class="twinkle" style="animation-delay:-2.97s"/>
<circle cx="93.9" cy="379.3" r="0.63" fill="#edf7f7" opacity="0.30"/>
<circle cx="114.1" cy="333.4" r="1.45" fill="#edf7f7" opacity="0.24"/>
<circle cx="437.5" cy="478.8" r="1.02" fill="#edf7f7" opacity="0.45"/>
<circle cx="269.9" cy="218.3" r="0.55" fill="#74f8ce" opacity="0.52"/>
<circle cx="470.4" cy="37.4" r="1.29" fill="#edf7f7" opacity="0.61" class="twinkle" style="animation-delay:-4.73s"/>
<circle cx="481.3" cy="234.2" r="1.56" fill="#edf7f7" opacity="0.43"/>
<circle cx="301.0" cy="164.4" r="0.69" fill="#edf7f7" opacity="0.59"/>
<circle cx="208.1" cy="283.7" r="1.63" fill="#74f8ce" opacity="0.39"/>
<circle cx="185.3" cy="52.4" r="0.72" fill="#edf7f7" opacity="0.60"/>
<circle cx="250.6" cy="232.8" r="1.16" fill="#edf7f7" opacity="0.21" class="twinkle" style="animation-delay:-1.77s"/>
<circle cx="263.9" cy="520.9" r="1.51" fill="#edf7f7" opacity="0.50"/>
<circle cx="490.8" cy="130.9" r="1.09" fill="#74f8ce" opacity="0.42"/>
<circle cx="132.7" cy="443.3" r="1.54" fill="#edf7f7" opacity="0.38"/>
<circle cx="344.6" cy="267.9" r="0.65" fill="#edf7f7" opacity="0.41"/>
<circle cx="148.3" cy="221.2" r="1.64" fill="#edf7f7" opacity="0.26" class="twinkle" style="animation-delay:-6.84s"/>
<circle cx="80.9" cy="356.1" r="1.46" fill="#74f8ce" opacity="0.25"/>
<circle cx="245.6" cy="395.8" r="1.64" fill="#edf7f7" opacity="0.38"/>
<circle cx="21.1" cy="384.0" r="1.37" fill="#edf7f7" opacity="0.34"/>
<circle cx="153.5" cy="227.1" r="0.64" fill="#edf7f7" opacity="0.21"/>
<circle cx="564.9" cy="453.4" r="0.69" fill="#74f8ce" opacity="0.44" class="twinkle" style="animation-delay:-2.52s"/>
<circle cx="388.7" cy="482.3" r="0.97" fill="#edf7f7" opacity="0.29"/>
    <g transform="translate(454 144)">
      <g class="reverse" stroke="#74f8ce" stroke-opacity=".25"><path d="M103.00 0.00L115.00 0.00"/>
<path d="M110.05 14.49L114.02 15.01"/>
<path d="M107.22 28.73L111.08 29.76"/>
<path d="M102.55 42.48L106.25 44.01"/>
<path d="M96.13 55.50L99.59 57.50"/>
<path d="M88.06 67.57L91.24 70.01"/>
<path d="M72.83 72.83L81.32 81.32"/>
<path d="M67.57 88.06L70.01 91.24"/>
<path d="M55.50 96.13L57.50 99.59"/>
<path d="M42.48 102.55L44.01 106.25"/>
<path d="M28.73 107.22L29.76 111.08"/>
<path d="M14.49 110.05L15.01 114.02"/>
<path d="M0.00 103.00L0.00 115.00"/>
<path d="M-14.49 110.05L-15.01 114.02"/>
<path d="M-28.73 107.22L-29.76 111.08"/>
<path d="M-42.48 102.55L-44.01 106.25"/>
<path d="M-55.50 96.13L-57.50 99.59"/>
<path d="M-67.57 88.06L-70.01 91.24"/>
<path d="M-72.83 72.83L-81.32 81.32"/>
<path d="M-88.06 67.57L-91.24 70.01"/>
<path d="M-96.13 55.50L-99.59 57.50"/>
<path d="M-102.55 42.48L-106.25 44.01"/>
<path d="M-107.22 28.73L-111.08 29.76"/>
<path d="M-110.05 14.49L-114.02 15.01"/>
<path d="M-103.00 0.00L-115.00 0.00"/>
<path d="M-110.05 -14.49L-114.02 -15.01"/>
<path d="M-107.22 -28.73L-111.08 -29.76"/>
<path d="M-102.55 -42.48L-106.25 -44.01"/>
<path d="M-96.13 -55.50L-99.59 -57.50"/>
<path d="M-88.06 -67.57L-91.24 -70.01"/>
<path d="M-72.83 -72.83L-81.32 -81.32"/>
<path d="M-67.57 -88.06L-70.01 -91.24"/>
<path d="M-55.50 -96.13L-57.50 -99.59"/>
<path d="M-42.48 -102.55L-44.01 -106.25"/>
<path d="M-28.73 -107.22L-29.76 -111.08"/>
<path d="M-14.49 -110.05L-15.01 -114.02"/>
<path d="M-0.00 -103.00L-0.00 -115.00"/>
<path d="M14.49 -110.05L15.01 -114.02"/>
<path d="M28.73 -107.22L29.76 -111.08"/>
<path d="M42.48 -102.55L44.01 -106.25"/>
<path d="M55.50 -96.13L57.50 -99.59"/>
<path d="M67.57 -88.06L70.01 -91.24"/>
<path d="M72.83 -72.83L81.32 -81.32"/>
<path d="M88.06 -67.57L91.24 -70.01"/>
<path d="M96.13 -55.50L99.59 -57.50"/>
<path d="M102.55 -42.48L106.25 -44.01"/>
<path d="M107.22 -28.73L111.08 -29.76"/>
<path d="M110.05 -14.49L114.02 -15.01"/></g>
      <g class="spin"><circle r="100" stroke="#74f8ce" stroke-width="1.5" stroke-dasharray="85 26 12 250"/></g>
      <g transform="rotate(-28)">
        <ellipse rx="138" ry="45" stroke="#74f8ce" stroke-opacity=".22"/>
        <ellipse rx="138" ry="45" pathLength="100" stroke="#74f8ce" stroke-width="2" class="flow-slow" filter="url(#glow)"/>
      </g>
      <circle r="75" fill="url(#glass)" stroke="#74f8ce" stroke-opacity=".2"/>
      <g class="float"><g transform="scale(0.49)">
    <path d="M-68-17L-82-94L-22-53Q0-61 22-53L82-94L68-17Q84 20 59 53Q31 76 0 76Q-31 76-59 53Q-84 20-68-17Z" fill="url(#glass)" stroke="url(#metal)" stroke-width="2.4"/>
    <g fill="none" stroke="#74f8ce" stroke-linecap="round" stroke-linejoin="round" filter="url(#glow)">
      <path d="M-59-35L-64-65L-39-48M59-35L64-65L39-48" opacity=".65" stroke-width="1.5"/>
      <g class="eyes" stroke-width="3.5">
        <path d="M-43-9L-23 1L-42 10M43-9L23 1L42 10"/>
      </g>
      <path d="M-5 23L0 27L5 23M0 27V34M0 34Q-10 42-17 34M0 34Q10 42 17 34" stroke-width="2"/>
      <path d="M-54 22L-92 16M-54 32L-96 34M54 22L92 16M54 32L96 34" opacity=".55" stroke-width="1.4"/>
    </g>
    <path d="M-40 54Q0 70 40 54" fill="none" stroke="#d6fff2" stroke-opacity=".18"/>
  </g></g>
    </g>
    <path d="M34 38H52M34 38V56" stroke="#74f8ce" stroke-width="2"/>
    <text x="64" y="50" font-size="11" fill="#91a9b8" class="mono" letter-spacing="1">TFBOY1 / CREATIVE ENGINEERING</text>
    <rect x="34" y="139" width="215" height="33" rx="4" fill="#74f8ce" fill-opacity=".07" stroke="#74f8ce" stroke-opacity=".25"/>
    <circle cx="50" cy="155" r="3" fill="#74f8ce" class="signal"/>
    <text x="65" y="160" font-size="14" fill="#74f8ce" class="mono" letter-spacing="1">INDEPENDENT BUILDER</text>
    <text x="27" y="288" font-size="119" fill="#edf7f7" class="display rise">TFboy1</text>
    <text x="34" y="342" font-size="29" fill="#d6fff2" font-weight="600" letter-spacing="-.7">Build tools. Make worlds.</text>
    <text x="34" y="382" font-size="22" fill="#91a9b8" >让世界更加自动化，也更有趣。</text>
    <path d="M34 416H566" stroke="url(#fade-line)" stroke-opacity=".5"/>
    <text x="34" y="450" font-size="12" fill="#91a9b8" class="mono" letter-spacing=".4">AI &amp; AUTOMATION  /  GAMES &amp; WORLDS  /  USEFUL APPS</text>
    <text x="34" y="506" font-size="12" fill="#74f8ce" class="mono" letter-spacing=".5">AUTOMATE THE ORDINARY. KEEP CREATING.</text>
  
    <rect width="600" height="550" fill="url(#dust)" pointer-events="none"/>
  </g>
  <rect x=".5" y=".5" width="599" height="549" rx="23.5" stroke="#9be7d8" stroke-opacity=".14"/>
</svg>
